<mxfile host="Electron" modified="2023-12-14T00:57:32.762Z" agent="Mozilla/5.0 (Windows NT 10.0; Win64; x64) AppleWebKit/537.36 (KHTML, like Gecko) draw.io/22.1.2 Chrome/114.0.5735.289 Electron/25.9.4 Safari/537.36" etag="zTMLL7AFrh3CIVADQWs9" version="22.1.2" type="device">
  <diagram name="Page-1" id="5IiFQkZQd2wYz2DN3Fz0">
    <mxGraphModel dx="-1928" dy="1612" grid="0" gridSize="10" guides="1" tooltips="1" connect="1" arrows="1" fold="1" page="0" pageScale="1" pageWidth="850" pageHeight="1100" math="0" shadow="0">
      <root>
        <mxCell id="0" />
        <mxCell id="1" parent="0" />
        <mxCell id="kzHbNotE2sPOe5PsXoQ6-1" value="AnalysisState" style="shape=umlLifeline;perimeter=lifelinePerimeter;whiteSpace=wrap;html=1;container=1;dropTarget=0;collapsible=0;recursiveResize=0;outlineConnect=0;portConstraint=eastwest;newEdgeStyle={&quot;curved&quot;:0,&quot;rounded&quot;:0};opacity=30;" vertex="1" parent="1">
          <mxGeometry x="4634" y="31" width="100" height="898" as="geometry" />
        </mxCell>
        <mxCell id="kzHbNotE2sPOe5PsXoQ6-2" value="" style="html=1;points=[[0,0,0,0,5],[0,1,0,0,-5],[1,0,0,0,5],[1,1,0,0,-5]];perimeter=orthogonalPerimeter;outlineConnect=0;targetShapes=umlLifeline;portConstraint=eastwest;newEdgeStyle={&quot;curved&quot;:0,&quot;rounded&quot;:0};" vertex="1" parent="kzHbNotE2sPOe5PsXoQ6-1">
          <mxGeometry x="45" y="81" width="10" height="593" as="geometry" />
        </mxCell>
        <mxCell id="kzHbNotE2sPOe5PsXoQ6-3" value="AEDController" style="shape=umlLifeline;perimeter=lifelinePerimeter;whiteSpace=wrap;html=1;container=1;dropTarget=0;collapsible=0;recursiveResize=0;outlineConnect=0;portConstraint=eastwest;newEdgeStyle={&quot;curved&quot;:0,&quot;rounded&quot;:0};opacity=30;" vertex="1" parent="1">
          <mxGeometry x="4838" y="31" width="100" height="897" as="geometry" />
        </mxCell>
        <mxCell id="kzHbNotE2sPOe5PsXoQ6-4" value="" style="html=1;points=[[0,0,0,0,5],[0,1,0,0,-5],[1,0,0,0,5],[1,1,0,0,-5]];perimeter=orthogonalPerimeter;outlineConnect=0;targetShapes=umlLifeline;portConstraint=eastwest;newEdgeStyle={&quot;curved&quot;:0,&quot;rounded&quot;:0};" vertex="1" parent="kzHbNotE2sPOe5PsXoQ6-3">
          <mxGeometry x="44" y="94" width="10" height="80" as="geometry" />
        </mxCell>
        <mxCell id="kzHbNotE2sPOe5PsXoQ6-5" value="Patient" style="shape=umlLifeline;perimeter=lifelinePerimeter;whiteSpace=wrap;html=1;container=1;dropTarget=0;collapsible=0;recursiveResize=0;outlineConnect=0;portConstraint=eastwest;newEdgeStyle={&quot;curved&quot;:0,&quot;rounded&quot;:0};opacity=30;" vertex="1" parent="1">
          <mxGeometry x="5054" y="28" width="100" height="900" as="geometry" />
        </mxCell>
        <mxCell id="kzHbNotE2sPOe5PsXoQ6-6" value="" style="html=1;points=[[0,0,0,0,5],[0,1,0,0,-5],[1,0,0,0,5],[1,1,0,0,-5]];perimeter=orthogonalPerimeter;outlineConnect=0;targetShapes=umlLifeline;portConstraint=eastwest;newEdgeStyle={&quot;curved&quot;:0,&quot;rounded&quot;:0};" vertex="1" parent="kzHbNotE2sPOe5PsXoQ6-5">
          <mxGeometry x="46" y="200" width="10" height="80" as="geometry" />
        </mxCell>
        <mxCell id="kzHbNotE2sPOe5PsXoQ6-7" value="getPatient()" style="html=1;verticalAlign=bottom;endArrow=block;curved=0;rounded=0;entryX=0;entryY=0;entryDx=0;entryDy=5;" edge="1" parent="1" target="kzHbNotE2sPOe5PsXoQ6-4">
          <mxGeometry relative="1" as="geometry">
            <mxPoint x="4690" y="130" as="sourcePoint" />
          </mxGeometry>
        </mxCell>
        <mxCell id="kzHbNotE2sPOe5PsXoQ6-8" value="return Patient Object" style="html=1;verticalAlign=bottom;endArrow=open;dashed=1;endSize=8;curved=0;rounded=0;exitX=0;exitY=1;exitDx=0;exitDy=-5;" edge="1" parent="1" source="kzHbNotE2sPOe5PsXoQ6-4">
          <mxGeometry relative="1" as="geometry">
            <mxPoint x="4689" y="200" as="targetPoint" />
          </mxGeometry>
        </mxCell>
        <mxCell id="kzHbNotE2sPOe5PsXoQ6-9" value="getHeartRate()" style="html=1;verticalAlign=bottom;endArrow=block;curved=0;rounded=0;entryX=0;entryY=0;entryDx=0;entryDy=5;" edge="1" parent="1" target="kzHbNotE2sPOe5PsXoQ6-6">
          <mxGeometry x="0.0025" relative="1" as="geometry">
            <mxPoint x="4693" y="233" as="sourcePoint" />
            <mxPoint as="offset" />
          </mxGeometry>
        </mxCell>
        <mxCell id="kzHbNotE2sPOe5PsXoQ6-10" value="return heartRate" style="html=1;verticalAlign=bottom;endArrow=open;dashed=1;endSize=8;curved=0;rounded=0;exitX=0;exitY=1;exitDx=0;exitDy=-5;" edge="1" parent="1" source="kzHbNotE2sPOe5PsXoQ6-6">
          <mxGeometry relative="1" as="geometry">
            <mxPoint x="4694" y="300" as="targetPoint" />
          </mxGeometry>
        </mxCell>
        <mxCell id="kzHbNotE2sPOe5PsXoQ6-11" value="alt" style="shape=umlFrame;whiteSpace=wrap;html=1;pointerEvents=0;" vertex="1" parent="1">
          <mxGeometry x="4271" y="334" width="1015" height="429" as="geometry" />
        </mxCell>
        <mxCell id="kzHbNotE2sPOe5PsXoQ6-12" value="&lt;span style=&quot;background-color: rgb(128, 128, 128);&quot;&gt;&lt;font color=&quot;#1a1a1a&quot;&gt;heartRate &amp;gt; MAX_NOMINAL_BPM&lt;/font&gt;&lt;/span&gt;" style="text;html=1;align=center;verticalAlign=middle;resizable=0;points=[];autosize=1;strokeColor=none;fillColor=none;" vertex="1" parent="1">
          <mxGeometry x="4573" y="414" width="204" height="26" as="geometry" />
        </mxCell>
        <mxCell id="kzHbNotE2sPOe5PsXoQ6-13" value="&lt;span style=&quot;background-color: rgb(128, 128, 128);&quot;&gt;&lt;font color=&quot;#333333&quot;&gt;heartRate &amp;lt; MIN_NOMINAL_BPM&lt;/font&gt;&lt;/span&gt;" style="text;html=1;align=center;verticalAlign=middle;resizable=0;points=[];autosize=1;strokeColor=none;fillColor=none;" vertex="1" parent="1">
          <mxGeometry x="4581" y="581" width="200" height="26" as="geometry" />
        </mxCell>
        <mxCell id="kzHbNotE2sPOe5PsXoQ6-14" value="AEDController" style="shape=umlLifeline;perimeter=lifelinePerimeter;whiteSpace=wrap;html=1;container=1;dropTarget=0;collapsible=0;recursiveResize=0;outlineConnect=0;portConstraint=eastwest;newEdgeStyle={&quot;curved&quot;:0,&quot;rounded&quot;:0};" vertex="1" parent="1">
          <mxGeometry x="4403" y="28" width="100" height="900" as="geometry" />
        </mxCell>
        <mxCell id="kzHbNotE2sPOe5PsXoQ6-15" value="" style="html=1;points=[[0,0,0,0,5],[0,1,0,0,-5],[1,0,0,0,5],[1,1,0,0,-5]];perimeter=orthogonalPerimeter;outlineConnect=0;targetShapes=umlLifeline;portConstraint=eastwest;newEdgeStyle={&quot;curved&quot;:0,&quot;rounded&quot;:0};" vertex="1" parent="kzHbNotE2sPOe5PsXoQ6-14">
          <mxGeometry x="45" y="420" width="10" height="48" as="geometry" />
        </mxCell>
        <mxCell id="kzHbNotE2sPOe5PsXoQ6-16" value="" style="html=1;points=[[0,0,0,0,5],[0,1,0,0,-5],[1,0,0,0,5],[1,1,0,0,-5]];perimeter=orthogonalPerimeter;outlineConnect=0;targetShapes=umlLifeline;portConstraint=eastwest;newEdgeStyle={&quot;curved&quot;:0,&quot;rounded&quot;:0};" vertex="1" parent="kzHbNotE2sPOe5PsXoQ6-14">
          <mxGeometry x="45" y="587" width="10" height="80" as="geometry" />
        </mxCell>
        <mxCell id="kzHbNotE2sPOe5PsXoQ6-17" value="sd AnalysisState" style="shape=umlFrame;whiteSpace=wrap;html=1;pointerEvents=0;width=131;height=27;" vertex="1" parent="1">
          <mxGeometry x="4232" y="-16" width="1101" height="945" as="geometry" />
        </mxCell>
        <mxCell id="kzHbNotE2sPOe5PsXoQ6-18" value="setState(SHOCK)" style="html=1;verticalAlign=bottom;endArrow=block;curved=0;rounded=0;" edge="1" parent="1">
          <mxGeometry width="80" relative="1" as="geometry">
            <mxPoint x="4677" y="460" as="sourcePoint" />
            <mxPoint x="4461" y="465" as="targetPoint" />
          </mxGeometry>
        </mxCell>
        <mxCell id="kzHbNotE2sPOe5PsXoQ6-19" value="setState(CPR)" style="html=1;verticalAlign=bottom;endArrow=block;curved=0;rounded=0;" edge="1" parent="1">
          <mxGeometry width="80" relative="1" as="geometry">
            <mxPoint x="4676" y="633" as="sourcePoint" />
            <mxPoint x="4460" y="638" as="targetPoint" />
          </mxGeometry>
        </mxCell>
        <mxCell id="kzHbNotE2sPOe5PsXoQ6-20" value="" style="line;strokeWidth=1;fillColor=none;align=left;verticalAlign=middle;spacingTop=-1;spacingLeft=3;spacingRight=3;rotatable=0;labelPosition=right;points=[];portConstraint=eastwest;strokeColor=inherit;dashed=1;" vertex="1" parent="1">
          <mxGeometry x="4281" y="533" width="985" height="8" as="geometry" />
        </mxCell>
        <mxCell id="kzHbNotE2sPOe5PsXoQ6-21" value="&lt;font style=&quot;font-size: 55px;&quot;&gt;Use Case 3: Analysis&lt;/font&gt;" style="rounded=1;whiteSpace=wrap;html=1;" vertex="1" parent="1">
          <mxGeometry x="4383" y="-92" width="571" height="76" as="geometry" />
        </mxCell>
      </root>
    </mxGraphModel>
  </diagram>
</mxfile>
